<svg xmlns="http://www.w3.org/2000/svg" viewBox="0 0 441 119" enable-background="new 0 0 441 119"><style type="text/css">.st0{fill:#DA2858;} .st1{fill:#F8F8F8;}</style><path class="st0" d="M65.4 94.6c0 4.3-.8 7.8-2.5 10.7-1.7 2.8-4 5.1-6.9 6.9-2.9 1.7-6.4 3-10.4 3.7-4 .7-8.2 1.1-12.8 1.1-4.6 0-8.8-.4-12.7-1.1-3.9-.7-7.2-2-10.1-3.7-2.8-1.7-5.1-4-6.7-6.9-1.6-2.8-2.5-6.4-2.5-10.7v-23.1c0-4.2 1.5-7.5 4.5-9.8 3-2.4 7.8-3.9 14.2-4.5-6.5-.5-11.1-2.1-13.9-4.8-2.6-2.8-3.9-6.7-3.9-11.8v-13.8c0-4.3.8-7.8 2.3-10.7 1.5-2.8 3.7-5.1 6.4-6.9 2.7-1.7 6-3 9.8-3.7 3.8-.7 8-1.1 12.6-1.1s8.8.4 12.7 1.1 7.2 2 10.1 3.7c2.8 1.7 5.1 4 6.7 6.9 1.6 2.8 2.5 6.4 2.5 10.7v13.9c0 5.1-1.4 9-4.2 11.7-2.8 2.7-7.4 4.3-13.9 4.8 6.5.6 11.2 2.1 14.2 4.5s4.5 5.7 4.5 9.8v23.1zm-24.4-70.1c0-4.5-2.5-6.7-7.4-6.7-5 0-7.5 2.2-7.5 6.7v17.5c0 3.2.6 5.5 1.9 6.9 1.3 1.4 3.1 2.3 5.5 2.6 2.4-.3 4.2-1.2 5.5-2.6 1.3-1.4 1.9-3.7 1.9-6.9v-17.5zm0 49.1c0-5.9-2.5-9.2-7.4-10-5 .8-7.5 4.1-7.5 10v23.2c0 4.5 2.5 6.7 7.5 6.7s7.4-2.2 7.4-6.7v-23.2zM113.3 69.1c0-5.8-3.3-8.6-9.8-8.6h-28.5v-52.9h63v12.5h-39.6v26.8h15c8.3 0 14.7 1.4 18.9 4.1 4.3 2.7 6.4 6.9 6.4 12.6v31.1c0 4.2-.8 7.7-2.5 10.6-1.7 2.9-4 5.2-6.9 6.9-2.9 1.7-6.4 2.9-10.4 3.7-4 .7-8.4 1.1-13 1.1s-8.7-.4-12.5-1.1c-3.8-.7-7-2-9.8-3.7-2.7-1.7-4.8-4-6.3-6.9-1.5-2.8-2.2-6.4-2.2-10.7v-19.3h23.4v21.5c0 4.5 2.5 6.7 7.5 6.7s7.4-2.2 7.4-6.7v-27.7z"/><path class="st1" d="M148.9 113.6v-87c0-4.2.8-7.7 2.5-10.6 1.7-2.9 4-5.2 6.9-6.9 2.9-1.7 6.4-2.9 10.4-3.7s8.4-1.1 13-1.1 8.8.4 12.7 1.1 7.2 2 10.1 3.7c2.8 1.7 5.1 4 6.7 6.9 1.6 2.8 2.5 6.4 2.5 10.7v26.5c0 3.6-.6 6.9-1.9 9.9-1.3 3-3.2 5.6-5.7 7.8s-5.6 3.9-9.2 5.1c-3.7 1.2-7.9 1.9-12.7 1.9-3 0-6.3-.3-9.8-.9v36.5h-25.5zm40.3-89.1c0-4.5-2.5-6.7-7.4-6.7-5 0-7.5 2.2-7.5 6.7v39.6h5.4c2.6 0 4.8-.8 6.7-2.3 1.9-1.5 2.8-3.9 2.8-7.1v-30.2zM220.1 26.6c0-4.2.8-7.7 2.5-10.6 1.7-2.9 4-5.2 6.9-6.9 2.9-1.7 6.4-2.9 10.4-3.7s8.4-1.1 13-1.1 8.8.4 12.8 1.1c4 .7 7.4 2 10.4 3.7 2.9 1.7 5.2 4 6.9 6.9 1.7 2.8 2.5 6.4 2.5 10.7v67.8c0 4.3-.8 7.8-2.5 10.7-1.7 2.8-4 5.1-6.9 6.9-2.9 1.7-6.4 3-10.4 3.7-4 .7-8.2 1.1-12.8 1.1-4.7 0-9-.4-13-1.1-4-.7-7.5-2-10.4-3.7-2.9-1.7-5.2-4-6.9-6.9-1.7-2.9-2.5-6.4-2.5-10.6v-68zm40.4-2.1c0-4.5-2.5-6.7-7.5-6.7s-7.4 2.2-7.4 6.7v72.3c0 4.5 2.5 6.7 7.4 6.7 5 0 7.5-2.2 7.5-6.7v-72.3zM335.6 113.6v-36.6c0-6.8-3.1-10.1-9.4-10.1h-5.5v46.8h-25.5v-87c0-4.2.8-7.7 2.5-10.6 1.7-2.9 4-5.2 6.9-6.9 2.9-1.7 6.4-2.9 10.4-3.7s8.4-1.1 13-1.1 8.7.4 12.5 1.1c3.8.7 7.1 2 9.8 3.7 2.8 1.7 4.9 4 6.5 6.9 1.5 2.8 2.3 6.4 2.3 10.7v17.3c0 5.1-1.4 9-4.2 11.7-2.8 2.7-7.4 4.3-13.9 4.8 6.5.6 11.2 2.1 14.2 4.5s4.5 5.7 4.5 9.8v38.7h-24.1zm0-89.1c0-4.5-2.5-6.7-7.4-6.7-5 0-7.5 2.2-7.5 6.7v30.4h5.5c3 0 5.3-.7 6.9-2.2 1.6-1.4 2.5-3.9 2.5-7.4v-20.8zM410.5 113.6v-89.1c0-4.5-2.5-6.7-7.4-6.7-5 0-7.5 2.2-7.5 6.7v89.1h-25.5v-87c0-4.2.8-7.7 2.5-10.6 1.7-2.9 4-5.2 6.9-6.9 2.9-1.7 6.4-2.9 10.4-3.7s8.4-1.1 13-1.1 8.8.4 12.8 1.1c4 .7 7.4 2 10.4 3.7 2.9 1.7 5.2 4 6.9 6.9 1.7 2.8 2.5 6.4 2.5 10.7v86.9h-25z"/></svg>